mtllib materials.mtl
v 0.2872407 -0.1035725 0.3945767
v 0.19648 0.06221581 0.3585578
v 0.2235441 0.1326933 0.1672214
v -0.3650357 -0.1326933 -0.023031
v -0.4043189 -0.047876 0.1466253
v -0.224115 -0.09902084 0.2003246
v -0.1136693 -0.1068261 0.3242741
v 0.0004605055 0.1151378 0.2225374
v -0.1505846 0.05200005 -0.2219689
v -0.2679571 0.04495943 -0.04456586
v -0.099433 0.06502306 0.4554863
v 0.2746317 -0.007627249 -0.3515886
v 0.02730513 0.09304309 -0.1503342
v 0.09320539 0.09679747 -0.3048511
v -0.2763565 0.1236489 0.3299444
v 0.002274036 -0.002617359 0.3694375
v 0.3055058 -0.09553778 0.2233286
v 0.2545107 0.04646349 0.1884197
v -0.1241667 0.0630585 0.2028264
v 0.02146089 0.06681752 0.07637244
v 0.1470191 0.00449729 -0.4392368
v 0.4043189 0.01932788 0.08837312
v 0.3863875 0.08129454 -0.02803677
v 0.284053 0.07350886 -0.09166348
v 0.3115433 0.04662025 -0.2092795
v 0.3121911 0.0469203 -0.207711
v 0.3742951 0.09426713 0.1427995
v 0.03854483 0.09531403 -0.132146
v -0.08078128 0.04085827 -0.2729294
v 0.3243929 0.03196669 -0.2075216
v 0.2233968 0.06101668 -0.1909997
v 0.1914185 0.08173633 -0.1069383
v -0.2476547 0.1115993 0.1774419
v 0.2026643 0.08550835 -0.2560762
v 0.007897913 0.05702007 -0.3809041
v -0.1345135 -0.04705977 -0.3763959
v -0.0134542 -0.01908576 -0.3713743
v -0.04231769 0.01073635 -0.4554862
v -0.02070194 0.04189265 -0.355261
v -0.1380543 0.05422235 -0.3910525
v -0.3221763 0.02248752 -0.1871873
v -0.3060966 0.01337564 -0.1353402
v -0.2201415 0.0658555 -0.2109064
v -0.3560377 -0.0264945 -0.2605841
v -0.3188701 0.05209041 -0.3587313
v -0.2780233 -0.03355587 -0.3307706
v -0.3195601 0.05212617 -0.3580894
v -0.3076825 -0.05797982 -0.2826819
v -0.3572952 0.08715343 0.1029803
v -0.3243222 0.05935407 0.2612286
v -0.2436029 -0.06822073 0.212169
v -0.1982966 0.02575862 0.3990241
v 0.03352314 0.06770325 0.3605341
v 0.06326139 -0.0330888 0.380107
v -0.0126847 0.0762763 0.3548774
v 0.1197763 0.05170047 0.3710933
v -0.2035683 -0.01006234 0.2726623
v 0.3844229 0.08568919 -0.02007157
vn 0.8073802 0.5074176 0.3011059
vn -0.3512016 -0.8674679 0.352359
vn -0.005646475 -0.996911 0.07833645
vn 0.01228385 0.9377312 0.3471446
vn -0.7825471 0.3666272 -0.5031944
vn -0.1342262 -0.5943208 0.7929477
vn 0.5303363 0.8113431 0.245898
vn 0.4274451 0.8839342 -0.1896076
vn 0.06968553 -0.9967932 -0.03933546
vn -0.8260888 0.4037621 -0.393133
vn 0.9254569 0.3607742 0.1156347
vn -0.2130031 0.9526538 -0.2169807
vn 0.5655794 -0.7846821 -0.2537598
vn 0.05629831 0.9760821 -0.2099865
vn 0.228324 0.3089651 0.9232599
vn 0.1187948 -0.9772039 -0.1759555
vn -0.3483073 0.9321535 0.09885312
vn -0.07196932 0.9973745 -0.008032993
vn -0.5985055 -0.1522438 -0.7865196
vn -0.3261566 -0.8766931 0.3535973
vn 0.1186065 0.9736328 -0.1948634
vn -0.2632293 0.9590936 0.1041628
vn -0.2006784 0.9777039 -0.06183191
vn 0.3666317 0.9303553 -0.00450738
vn 0.4595358 0.7836849 -0.4179292
vn 0.09012149 0.8374209 -0.5390773
vn -0.4474764 0.4479809 -0.7740014
vn 0.2117014 0.9350237 0.2844526
vn 0.711316 0.5753033 -0.4038016
vn -0.4818115 -0.7174591 -0.5031005
vn -0.2472049 0.9444276 -0.2166709
vn 0.3683092 0.8286028 -0.4216228
vn 0.222489 -0.8923358 -0.3927283
vn 0.3288351 0.910312 0.2513953
vn 0.2277049 -0.9698812 -0.08649222
vn -0.8200594 -0.1099405 -0.5616187
vn 0.0150609 -0.9549898 -0.2962562
vn 0.197524 0.9232279 -0.3295975
vn -0.7569966 0.5618883 0.3335232
vn -0.4058619 0.1880942 -0.8943695
vn -0.5948164 -0.1354575 -0.7923666
vn 0.08230497 0.9939632 0.07254755
vn 0.9481097 0.1816449 -0.2609467
vn 0.1856234 0.9823934 0.02114376
vn -0.3256698 0.9088243 0.2607252
vn -0.9027534 0.4044076 0.1465975
vn -0.1589119 -0.3740755 -0.9136819
vn -0.02138062 0.9966825 -0.07853021
vn 0.4301083 0.4347763 0.7911867
vn 0.4301083 0.4347765 0.7911867
vn -0.6061838 -0.4928792 -0.6241885
vn -0.6173577 -0.7092057 -0.3404364
vn -0.355859 0.9216973 0.1543973
vn -0.8676689 0.4918975 0.07202426
vn 0.4810394 -0.8650157 -0.1426497
vn 0.4810373 -0.8650167 -0.1426508
vn -0.8853363 0.3900922 0.2529974
vn -0.8344735 0.1165183 -0.5385884
vn -0.01951749 0.9580893 -0.2858042
vn -0.3768317 -0.5304457 0.7593585
vn -0.05922534 0.9974999 -0.03855328
vn -0.2142548 0.749698 -0.6261372
vn -0.1476244 0.9834024 -0.1054844
vn 0.4015754 0.866402 -0.2967908
vn -0.536193 0.1576165 0.8292492
vn 0.1420608 0.9460674 0.2911619
vn 0.004443508 0.2146264 0.9766861
vn 0 0 0
vn -0.06252048 0.1696576 0.9835179
vn -0.1544449 -0.966795 -0.2036029
vn 0.1398386 0.9462184 0.2917463
vn -0.05366527 0.9020423 0.4282986
vn 0.1616679 -0.002848607 0.9868411
vn -0.1051697 -0.5095205 -0.8540072
vn 0.3420486 0.8916439 -0.296604
vn -0.2172714 -0.5809296 0.7844195
vn -0.8277937 -0.5297546 0.1847096
vn -0.2172089 0.7542841 -0.6195771
vn -0.3768317 -0.5304457 0.7593585
vn -0.3768317 -0.5304457 0.7593585
vn -0.56392 -0.6863467 0.459263
vn -0.7690693 -0.605798 0.2038164
vn -0.7138048 -0.3351735 0.6149322
vn 0.9372264 0.3464158 0.04003485
vn 0.228324 0.3089649 0.9232599
vn -0.3773883 0.7683132 -0.5169845
vn 0.2413492 0.9697679 -0.03606705
vn 0.7965173 -0.474187 -0.3751091
vn 0.8314804 -0.06737968 0.5514529
vn 0.1186065 0.9736328 -0.1948634
vn 0.1186065 0.9736328 -0.1948634
vn 0.711316 0.5753033 -0.4038016
vt 0.1582544 -0.1007983
vt 0.1774812 -0.100068
vt 0.1851401 -0.08097786
vt 0.08458709 -0.169977
vt 0.1023338 -0.1777397
vt 0.1090375 -0.1594424
vt 0.03165645 -0.124449
vt 0.07246076 -0.1110416
vt 0.09130805 -0.0749639
vt 0.02410859 -0.04587442
vt 0.007180484 -0.05755906
vt 0.02909324 -0.06837991
vt -0.1705746 0.0435962
vt -0.1836298 0.02678732
vt -0.1735026 0.009125937
vt 0.2041994 -0.005671892
vt 0.2078903 -0.04620824
vt 0.2287888 -0.04048382
vt 0.1077848 -0.0881235
vt 0.1122196 -0.1212659
vt 0.1194713 -0.1061088
vt -0.06451397 -0.1995247
vt -0.07630912 -0.1710246
vt -0.08164485 -0.1849806
vt 0.0733986 -0.05892109
vt 0.05792319 -0.05132161
vt 0.01188354 -0.1060696
vt -0.1586047 0.02437472
vt -0.167917 0.04247899
vt -0.1772144 0.01900073
vt 0.2144198 -0.02589284
vt 0.2059039 -0.02988247
vt 0.19188 -0.03645251
vt 0.195377 -0.0533348
vt -0.1057143 -0.06945838
vt -0.09689201 -0.05230354
vt -0.1113482 -0.0342667
vt -0.01676436 0.07027949
vt 0.05117382 0.05907309
vt 0.04157484 0.07694964
vt -0.08037604 -0.06459867
vt -0.09594113 -0.08534918
vt -0.07167764 -0.07297429
vt -0.06065429 -0.06735216
vt -0.06082498 -0.06732832
vt 0.1833384 0.01565847
vt 0.173097 0.02762105
vt 0.1740858 0.01397665
vt 0.03562705 -0.03490173
vt -0.03229342 -0.02358844
vt -0.01234343 -0.08796611
vt -0.05770805 0.006188667
vt -0.0423805 -0.01111375
vt -0.02120653 -0.002579031
vt -0.02329717 -0.002076856
vt -0.04449718 -0.0736806
vt -0.02365578 -0.09722422
vt -0.0106783 -0.08035525
vt -0.208061 -0.03842577
vt -0.208931 0.003202851
vt -0.2134425 -0.004252519
vt 0.07003134 -0.1105532
vt 0.05994713 -0.1223621
vt 0.1049958 -0.1052324
vt 0.08559985 -0.108184
vt -0.0529303 -0.1078701
vt -0.05366088 -0.08760238
vt -0.06116128 -0.0929807
vt -0.05499136 -0.1072577
vt -0.001326137 -0.03502919
vt -0.01407796 -0.02012955
vt -0.03521958 -0.02874408
vt -0.04350219 -0.04295413
vt -0.03119409 -0.05822235
vt -0.03068342 -0.0320912
vt -0.01101267 -0.1881201
vt 0.001442294 -0.1787855
vt -0.006526263 -0.1678768
vt -0.1030462 -0.1326189
vt -0.09139974 -0.1229172
vt -0.1069218 -0.1207636
vt -0.1172133 -0.08790463
vt -0.1099097 -0.07369842
vt -0.126027 -0.07961269
vt -0.1691407 0.03129299
vt -0.1834236 0.0262174
vt -0.1934768 0.008361751
vt 0.06737845 -0.08810887
vt 0.06752192 -0.06761817
vt 0.05727946 -0.06050054
vt 0.06041131 -0.0690623
vt -0.1369424 -0.1279315
vt -0.1220803 -0.1329004
vt -0.1362794 -0.1260903
vt -0.1370897 -0.1278421
vt -0.1538824 -0.04406646
vt -0.1619556 -0.05784988
vt -0.1620943 -0.0802999
vt -0.1601682 -0.0718013
vt -0.06669394 -0.05464914
vt -0.05506056 -0.03544791
vt -0.06501494 -0.02856698
vt -0.09642935 -0.1315017
vt -0.08114503 -0.1236826
vt -0.09011199 -0.1110045
vt -0.069784 -0.01409314
vt -0.06477611 -0.002711041
vt -0.07405429 -0.001336887
vt 0.09000386 -0.07968043
vt 0.08916466 -0.1081063
vt 0.0928321 -0.09859625
vt -0.007055516 -0.02792498
vt -0.01161121 -0.0394955
vt 0.01388047 -0.07418812
vt -0.2074699 -0.01500318
vt -0.1963668 0.02659158
vt -0.2050368 0.03203997
vt -0.06258265 -0.02971138
vt -0.0631482 -0.04728442
vt -0.0455895 -0.09493192
vt -0.05714439 -0.1316449
vt -0.05162051 -0.120619
vt -0.06233524 -0.12046
vt -0.0005057958 0.07598606
vt 0.01416653 0.09368849
vt 0.008705834 0.09299721
vt -0.1939469 0.01042462
vt -0.1885786 0.02716715
vt -0.2001183 0.01191454
vt -0.2020288 0.01646195
vt -0.2107347 0.007727618
vt -0.2016436 0.003015424
vt 0.02181261 -0.09396892
vt 0.03498301 -0.09478088
vt 0.02713074 -0.08527362
vt 0.0523667 0.1949146
vt 0.04166033 0.1944627
vt 0.04946854 0.1892661
vt 0.03317607 -0.1157386
vt 0.02000949 -0.114867
vt 0.01973772 -0.1303219
vt 0.02880219 -0.02596573
vt 0.0275459 -0.01469778
vt 0.02333028 -0.02656181
vt -0.04797025 0.1216626
vt -0.05950623 0.1017735
vt -0.03921881 0.1180931
vt -0.1975605 0.002587943
vt -0.2056702 -0.01389443
vt -0.1958307 -0.01491378
vt -0.02165479 -0.1005617
vt -0.004577101 -0.1056319
vt -0.00453641 -0.1055468
vt -0.006885397 -0.08732839
vt 0.2013717 -0.04462684
vt 0.2030602 -0.03214985
vt 0.1952828 -0.01879167
vt 0.1896986 -0.06005324
vt 0.2013716 -0.04462684
vt 0.1952828 -0.01879168
vt -0.2100374 -0.04359394
vt -0.2100621 -0.04368493
vt -0.2033184 -0.05485244
vt -0.1986864 -0.05076303
vt -0.2002192 -0.04480168
vt -0.1686696 -0.1109253
vt -0.1500153 -0.1290891
vt -0.165049 -0.1059183
vt 0.004720353 -0.02865692
vt 0.02072492 -0.02196495
vt 0.003509557 -0.01738399
vt -0.05060053 0.09634171
vt -0.04407921 0.1076405
vt -0.05946345 0.09962471
vt -0.005370066 0.004142812
vt -0.001849355 -0.0009061264
vt 0.02064518 -0.01693413
vt -0.006299107 0.02170488
vt -0.005370434 0.004142416
vt 0.02064481 -0.01693452
vt -0.04525521 0.1295429
vt -0.06953852 0.1316113
vt -0.06109102 0.1252706
vt -0.0470024 0.1146958
vt -0.2066648 0.02275985
vt -0.2198645 0.01088198
vt -0.2121088 -0.001898485
vt -0.09777389 -0.1252568
vt -0.08444654 -0.1135224
vt -0.107581 -0.1160128
vt 0.2163505 -0.06321082
vt 0.2286904 -0.05063929
vt 0.2135201 -0.04596599
vt 0.2098576 -0.04483772
vt -0.02953766 -0.1012315
vt -0.05014022 -0.0774786
vt -0.05758375 -0.09527509
vt -0.1855839 -0.01748542
vt -0.1896569 -0.04017361
vt -0.1853437 -0.05312441
vt -0.07327182 -0.09071102
vt -0.08719841 -0.09766156
vt -0.06288196 -0.09929488
vt -0.09600091 -0.1697511
vt -0.0918205 -0.1825972
vt -0.06884161 -0.1789399
vt 0.1363947 0.09851643
vt 0.1506858 0.09802262
vt 0.1313325 0.1094439
vt 0.01703466 -0.1012846
vt 0.03555798 -0.1269321
vt 0.03151132 -0.09750445
vt 0.1727583 0.03722417
vt 0.1535225 0.03678943
vt 0.1707972 0.02081992
vt 0 0
vt 0 0
vt 0 0
vt 0 0
vt 0 0
vt 0.2026277 0.009391104
vt 0.1852148 0.02990151
vt 0.1774911 0.02726644
vt 0.001878573 -0.1118391
vt -0.0008345494 -0.115718
vt -0.01564205 -0.1381818
vt 0.01155249 -0.09380044
vt 0.01688964 -0.1008422
vt 0.03136735 -0.09706617
vt 0.01816066 -0.03603333
vt 0.02035503 -0.04356303
vt 0.04021052 -0.04657197
vt 0.200218 0.007398854
vt 0.2053988 0.01621943
vt 0.2029949 0.02368486
vt -0.1424703 -0.01763511
vt -0.1365694 -0.01405776
vt -0.1190114 0.001599776
vt -0.1230131 -0.1622565
vt -0.1155853 -0.1492924
vt -0.1220254 -0.1196475
vt 0.20919 -0.04370028
vt 0.2258179 -0.04887668
vt 0.2299741 -0.03757346
vt -0.1137593 -0.211205
vt -0.09965774 -0.2088335
vt -0.1056229 -0.1971203
vt -0.1886105 -0.04038892
vt -0.1985016 -0.06839836
vt -0.1842611 -0.05332763
vt 0.2286904 -0.05063929
vt 0.2360894 -0.04310144
vt 0.2202223 -0.03952179
vt 0.2135201 -0.04596599
vt 0.2202223 -0.03952179
vt 0.2098576 -0.04483772
vt 0.2135201 -0.04596599
vt 0.1567713 -0.1427202
vt 0.1671539 -0.1297422
vt 0.1356841 -0.1589723
vt -0.0096596 -0.2299606
vt -0.008678941 -0.2125733
vt -0.0197081 -0.2214865
vt 0.2025407 0.07756748
vt 0.1895462 0.08324484
vt 0.1959998 0.0679289
vt 0.2018749 0.005885286
vt 0.201183 0.006507827
vt 0.1984242 -0.006511995
vt 0.2077316 -0.009370217
vt 0.1588489 0.01120709
vt 0.1740858 0.01397667
vt 0.173097 0.02762106
vt -0.153888 0.01693508
vt -0.1547909 0.01670952
vt -0.1726943 -0.0009304541
vt -0.03968454 -0.1185576
vt -0.02829368 -0.09615336
vt -0.0430499 -0.1031737
vt 0.03060477 0.1438294
vt 0.01861102 0.149598
vt -0.02755934 0.1357739
vt 0.2077492 0.03981223
vt 0.1980858 0.04100165
vt 0.1973533 0.0207242
vt -0.06489997 -0.08432947
vt -0.08891549 -0.09717898
vt -0.05499136 -0.1072577
vt -0.06116128 -0.0929807
vt -0.05366088 -0.08760238
vt -0.05398929 -0.0784917
vt -0.06489997 -0.08432947
vt -0.06116128 -0.0929807
vt -0.1362794 -0.1260903
vt -0.1539692 -0.117606
vt -0.1370897 -0.1278421
o group1943250797
g mesh1943250797
usemtl mat21
f 3/3/1 2/2/1 1/1/1
f 6/6/2 5/5/2 4/4/2
f 1/9/3 7/8/3 4/7/3
f 8/12/4 2/11/4 3/10/4
f 4/15/5 10/14/5 9/13/5
f 11/18/6 7/17/6 1/16/6
f 14/21/7 13/20/7 12/19/7
f 11/24/8 16/23/8 15/22/8
f 4/27/9 17/26/9 1/25/9
f 5/30/10 10/29/10 4/28/10
f 1/34/11 17/33/11 18/32/11 3/31/11
f 3/37/12 20/36/12 19/35/12
f 22/40/13 17/39/13 21/38/13
f 26/45/14 25/44/14 24/43/14 3/42/14 23/41/14
f 18/48/15 27/47/15 3/46/15
f 4/51/16 21/50/16 17/49/16
f 28/55/17 13/54/17 20/53/17 3/52/17
f 9/58/18 10/57/18 20/56/18
f 9/61/19 29/60/19 4/59/19
f 30/65/20 23/64/20 21/63/20 12/62/20
f 28/69/21 32/68/21 31/67/21 13/66/21
f 20/72/22 13/71/22 9/70/22
f 14/75/23 9/74/23 13/73/23
f 19/78/24 33/77/24 15/76/24
f 25/81/25 12/80/25 34/79/25
f 14/84/26 21/83/26 35/82/26
f 13/87/27 34/86/27 12/85/27
f 31/91/28 25/90/28 34/89/28 13/88/28
f 26/95/29 30/94/29 12/93/29 25/92/29
f 29/99/30 9/98/30 35/97/30 21/96/30
f 14/102/31 35/101/31 9/100/31
f 12/105/32 21/104/32 14/103/32
f 38/108/33 37/107/33 36/106/33
f 39/111/34 29/110/34 21/109/34
f 4/114/35 36/113/35 37/112/35
f 40/117/36 36/116/36 4/115/36
f 4/120/37 37/119/37 21/118/37
f 39/123/38 38/122/38 40/121/38
f 42/126/39 41/125/39 4/124/39
f 39/129/40 21/128/40 37/127/40
f 36/132/41 40/131/41 38/130/41
f 39/135/42 40/134/42 29/133/42
f 37/138/43 38/137/43 39/136/43
f 43/141/44 29/140/44 40/139/44
f 42/144/45 43/143/45 41/142/45
f 44/147/46 4/146/46 41/145/46
f 46/150/47 45/149/47 40/148/47
f 40/154/48 45/153/48 47/152/48 43/151/48
f 29/157/49 43/156/49 42/155/49
f 29/160/50 42/159/50 4/158/50
f 46/165/51 48/164/51 44/163/51 47/162/51 45/161/51
f 48/168/52 4/167/52 44/166/52
f 43/171/53 47/170/53 41/169/53
f 41/174/54 47/173/54 44/172/54
f 4/177/55 48/176/55 46/175/55
f 4/180/56 46/179/56 40/178/56
f 5/184/57 50/183/57 15/182/57 49/181/57
f 5/187/58 49/186/58 10/185/58
f 33/190/59 10/189/59 49/188/59
f 6/194/60 51/193/60 50/192/60 5/191/60
f 19/197/61 20/196/61 10/195/61
f 19/200/62 8/199/62 3/198/62
f 49/203/63 15/202/63 33/201/63
f 10/206/64 33/205/64 19/204/64
f 11/209/65 15/208/65 52/207/65
f 8/212/66 15/211/66 53/210/66
f 54/215/67 1/214/67 2/213/67
f 16/220/68 54/219/68 56/218/68 53/217/68 55/216/68
f 16/223/69 55/222/69 15/221/69
f 15/226/70 55/225/70 53/224/70
f 8/229/71 53/228/71 56/227/71
f 8/232/72 56/231/72 2/230/72
f 2/235/73 56/234/73 54/233/73
f 1/238/74 54/237/74 16/236/74
f 1/241/75 16/240/75 11/239/75
f 11/244/76 52/243/76 7/242/76
f 57/247/77 52/246/77 15/245/77
f 19/250/78 15/249/78 8/248/78
f 51/254/79 57/253/79 15/252/79 50/251/79
f 51/257/80 6/256/80 57/255/80
f 4/260/81 7/259/81 6/258/81
f 57/263/82 7/262/82 52/261/82
f 6/266/83 7/265/83 57/264/83
f 27/270/84 22/269/84 23/268/84 58/267/84
f 27/273/85 18/272/85 17/271/85
f 3/276/86 58/275/86 23/274/86
f 27/279/87 58/278/87 3/277/87
f 21/282/88 23/281/88 22/280/88
f 17/285/89 22/284/89 27/283/89
f 32/289/90 28/288/90 3/287/90 24/286/90
f 32/293/91 24/292/91 25/291/91 31/290/91
f 26/296/92 23/295/92 30/294/92
